<svg width="250" height="250" viewBox="-125 -125 250 250" role="img" aria-label="Animated bloub avatar" xmlns="http://www.w3.org/2000/svg"><defs><mask id="bot-mask-0m23v9" maskUnits="userSpaceOnUse" x="-158" y="-158" width="316" height="316"><path d="M104.19 0.33C104.19 3.68 103.33 7.16 102.14 10.37C100.96 13.58 98.75 16.63 97.08 19.6C95.41 22.58 93.73 25.41 92.11 28.21C90.49 31.02 88.92 33.73 87.36 36.44C85.8 39.14 84.27 41.79 82.74 44.45C81.2 47.11 79.68 49.74 78.14 52.41C76.6 55.09 75.06 57.75 73.48 60.48C71.9 63.21 70.32 65.96 68.67 68.81C67.02 71.67 65.45 74.7 63.6 77.6C61.75 80.5 59.99 83.83 57.57 86.21C55.16 88.59 52.23 90.6 49.12 91.88C46.02 93.16 42.36 93.55 38.94 93.88C35.51 94.21 31.92 93.88 28.57 93.88C25.21 93.88 21.99 93.88 18.8 93.88C15.6 93.88 12.5 93.88 9.4 93.88C6.3 93.88 3.26 93.88 0.19 93.88C-2.88 93.88 -5.93 93.88 -9.03 93.88C-12.13 93.88 -15.23 93.88 -18.42 93.88C-21.61 93.88 -24.83 93.88 -28.19 93.88C-31.55 93.88 -35.14 94.21 -38.56 93.88C-41.99 93.55 -45.64 93.16 -48.75 91.88C-51.85 90.6 -54.79 88.59 -57.2 86.21C-59.61 83.83 -61.37 80.5 -63.22 77.6C-65.07 74.7 -66.65 71.67 -68.3 68.81C-69.94 65.96 -71.53 63.21 -73.11 60.48C-74.68 57.75 -76.22 55.09 -77.76 52.41C-79.31 49.74 -80.82 47.11 -82.36 44.45C-83.9 41.79 -85.42 39.14 -86.99 36.44C-88.55 33.73 -90.12 31.02 -91.74 28.21C-93.36 25.41 -95.03 22.58 -96.71 19.6C-98.38 16.63 -100.59 13.58 -101.77 10.37C-102.95 7.16 -103.81 3.68 -103.81 0.33C-103.81 -3.02 -102.95 -6.5 -101.77 -9.71C-100.59 -12.93 -98.38 -15.97 -96.71 -18.94C-95.03 -21.92 -93.36 -24.75 -91.74 -27.56C-90.12 -30.36 -88.55 -33.07 -86.99 -35.78C-85.42 -38.49 -83.9 -41.13 -82.36 -43.79C-80.82 -46.46 -79.31 -49.08 -77.76 -51.76C-76.22 -54.43 -74.68 -57.09 -73.11 -59.82C-71.53 -62.55 -69.94 -65.3 -68.3 -68.15C-66.65 -71.01 -65.07 -74.04 -63.22 -76.94C-61.37 -79.84 -59.61 -83.17 -57.2 -85.55C-54.79 -87.93 -51.85 -89.94 -48.75 -91.22C-45.64 -92.5 -41.99 -92.89 -38.56 -93.22C-35.14 -93.55 -31.55 -93.22 -28.19 -93.22C-24.83 -93.22 -21.61 -93.22 -18.42 -93.22C-15.23 -93.22 -12.13 -93.22 -9.03 -93.22C-5.93 -93.22 -2.88 -93.22 0.19 -93.22C3.26 -93.22 6.3 -93.22 9.4 -93.22C12.5 -93.22 15.6 -93.22 18.8 -93.22C21.99 -93.22 25.21 -93.22 28.57 -93.22C31.92 -93.22 35.51 -93.55 38.94 -93.22C42.36 -92.89 46.02 -92.5 49.12 -91.22C52.23 -89.94 55.16 -87.93 57.57 -85.55C59.99 -83.17 61.75 -79.84 63.6 -76.94C65.45 -74.04 67.02 -71.01 68.67 -68.15C70.32 -65.3 71.9 -62.55 73.48 -59.82C75.06 -57.09 76.6 -54.43 78.14 -51.76C79.68 -49.08 81.2 -46.46 82.74 -43.79C84.27 -41.13 85.8 -38.49 87.36 -35.78C88.92 -33.07 90.49 -30.36 92.11 -27.56C93.73 -24.75 95.41 -21.92 97.08 -18.94C98.75 -15.97 100.96 -12.93 102.14 -9.71C103.33 -6.5 104.19 -3.02 104.19 0.33Z" fill="#fff"/><path d="M-10 -11A10 10 0 0 1 0 -21L0 -21A10 10 0 0 1 10 -11L10 11A10 10 0 0 1 0 21L0 21A10 10 0 0 1 -10 11Z" class="oeil0" opacity="1" fill="#000"/><path d="M-10 -11A10 10 0 0 1 0 -21L0 -21A10 10 0 0 1 10 -11L10 11A10 10 0 0 1 0 21L0 21A10 10 0 0 1 -10 11Z" class="oeil1" opacity="1" fill="#000"/></mask></defs><g fill="none" stroke-linecap="round"></g><g opacity="1"><path d="M104.19 0.33C104.19 3.68 103.33 7.16 102.14 10.37C100.96 13.58 98.75 16.63 97.08 19.6C95.41 22.58 93.73 25.41 92.11 28.21C90.49 31.02 88.92 33.73 87.36 36.44C85.8 39.14 84.27 41.79 82.74 44.45C81.2 47.11 79.68 49.74 78.14 52.41C76.6 55.09 75.06 57.75 73.48 60.48C71.9 63.21 70.32 65.96 68.67 68.81C67.02 71.67 65.45 74.7 63.6 77.6C61.75 80.5 59.99 83.83 57.57 86.21C55.16 88.59 52.23 90.6 49.12 91.88C46.02 93.16 42.36 93.55 38.94 93.88C35.51 94.21 31.92 93.88 28.57 93.88C25.21 93.88 21.99 93.88 18.8 93.88C15.6 93.88 12.5 93.88 9.4 93.88C6.3 93.88 3.26 93.88 0.19 93.88C-2.88 93.88 -5.93 93.88 -9.03 93.88C-12.13 93.88 -15.23 93.88 -18.42 93.88C-21.61 93.88 -24.83 93.88 -28.19 93.88C-31.55 93.88 -35.14 94.21 -38.56 93.88C-41.99 93.55 -45.64 93.16 -48.75 91.88C-51.85 90.6 -54.79 88.59 -57.2 86.21C-59.61 83.83 -61.37 80.5 -63.22 77.6C-65.07 74.7 -66.65 71.67 -68.3 68.81C-69.94 65.96 -71.53 63.21 -73.11 60.48C-74.68 57.75 -76.22 55.09 -77.76 52.41C-79.31 49.74 -80.82 47.11 -82.36 44.45C-83.9 41.79 -85.42 39.14 -86.99 36.44C-88.55 33.73 -90.12 31.02 -91.74 28.21C-93.36 25.41 -95.03 22.58 -96.71 19.6C-98.38 16.63 -100.59 13.58 -101.77 10.37C-102.95 7.16 -103.81 3.68 -103.81 0.33C-103.81 -3.02 -102.95 -6.5 -101.77 -9.71C-100.59 -12.93 -98.38 -15.97 -96.71 -18.94C-95.03 -21.92 -93.36 -24.75 -91.74 -27.56C-90.12 -30.36 -88.55 -33.07 -86.99 -35.78C-85.42 -38.49 -83.9 -41.13 -82.36 -43.79C-80.82 -46.46 -79.31 -49.08 -77.76 -51.76C-76.22 -54.43 -74.68 -57.09 -73.11 -59.82C-71.53 -62.55 -69.94 -65.3 -68.3 -68.15C-66.65 -71.01 -65.07 -74.04 -63.22 -76.94C-61.37 -79.84 -59.61 -83.17 -57.2 -85.55C-54.79 -87.93 -51.85 -89.94 -48.75 -91.22C-45.64 -92.5 -41.99 -92.89 -38.56 -93.22C-35.14 -93.55 -31.55 -93.22 -28.19 -93.22C-24.83 -93.22 -21.61 -93.22 -18.42 -93.22C-15.23 -93.22 -12.13 -93.22 -9.03 -93.22C-5.93 -93.22 -2.88 -93.22 0.19 -93.22C3.26 -93.22 6.3 -93.22 9.4 -93.22C12.5 -93.22 15.6 -93.22 18.8 -93.22C21.99 -93.22 25.21 -93.22 28.57 -93.22C31.92 -93.22 35.51 -93.55 38.94 -93.22C42.36 -92.89 46.02 -92.5 49.12 -91.22C52.23 -89.94 55.16 -87.93 57.57 -85.55C59.99 -83.17 61.75 -79.84 63.6 -76.94C65.45 -74.04 67.02 -71.01 68.67 -68.15C70.32 -65.3 71.9 -62.55 73.48 -59.82C75.06 -57.09 76.6 -54.43 78.14 -51.76C79.68 -49.08 81.2 -46.46 82.74 -43.79C84.27 -41.13 85.8 -38.49 87.36 -35.78C88.92 -33.07 90.49 -30.36 92.11 -27.56C93.73 -24.75 95.41 -21.92 97.08 -18.94C98.75 -15.97 100.96 -12.93 102.14 -9.71C103.33 -6.5 104.19 -3.02 104.19 0.33Z" fill="#f9f9f9"/><g mask="url(#bot-mask-0m23v9)"><rect x="-158" y="-158" width="316" height="316" fill="#ad2222"/></g></g><g></g><g fill="none" stroke-linecap="round"></g><style>.oeil0,.oeil1{transform-box:view-box;transform-origin:0 0;animation-duration:2.967s;animation-iteration-count:infinite;animation-timing-function:linear;animation-direction:alternate}.oeil0{animation-name:oeil0}.oeil1{animation-name:oeil1}@keyframes oeil0{0%{transform:matrix(0.99,-0.01,0.03,0.45,-11.64,13)}1.124%{transform:matrix(0.99,-0.01,0.03,0.45,-11.67,13.06)}2.247%{transform:matrix(0.99,-0.01,0.03,0.45,-11.7,13.12)}3.371%{transform:matrix(0.99,-0.01,0.03,0.45,-11.74,13.18)}4.494%{transform:matrix(0.99,-0.01,0.03,0.45,-11.78,13.22)}5.618%{transform:matrix(0.99,-0.01,0.03,0.45,-11.83,13.26)}6.742%{transform:matrix(0.99,-0.01,0.03,0.45,-11.89,13.29)}7.865%{transform:matrix(0.99,-0.01,0.03,0.45,-11.96,13.32)}8.989%{transform:matrix(0.99,-0.01,0.03,0.45,-12.02,13.33)}10.112%{transform:matrix(0.99,-0.01,0.03,0.45,-12.1,13.34)}11.236%{transform:matrix(0.99,-0.01,0.04,0.45,-12.17,13.34)}12.36%{transform:matrix(0.99,-0.01,0.04,0.45,-12.25,13.34)}13.483%{transform:matrix(0.99,-0.01,0.04,0.45,-12.33,13.33)}14.607%{transform:matrix(0.99,-0.01,0.04,0.45,-12.42,13.32)}15.73%{transform:matrix(0.99,-0.01,0.04,0.45,-12.5,13.3)}16.854%{transform:matrix(0.99,-0.01,0.04,0.45,-12.58,13.28)}17.978%{transform:matrix(0.99,-0.01,0.04,0.45,-12.66,13.26)}19.101%{transform:matrix(0.99,-0.01,0.04,0.45,-12.74,13.24)}20.225%{transform:matrix(0.99,-0.01,0.04,0.45,-12.81,13.22)}21.348%{transform:matrix(0.99,-0.01,0.04,0.45,-12.89,13.2)}22.472%{transform:matrix(0.99,-0.01,0.04,0.45,-12.96,13.19)}23.596%{transform:matrix(0.99,-0.01,0.04,0.45,-13.02,13.19)}24.719%{transform:matrix(0.99,-0.01,0.04,0.45,-13.08,13.18)}25.843%{transform:matrix(0.99,-0.01,0.04,0.45,-13.14,13.18)}26.966%{transform:matrix(0.99,-0.01,0.04,0.45,-13.19,13.19)}28.09%{transform:matrix(0.99,-0.01,0.04,0.45,-13.24,13.2)}29.213%{transform:matrix(0.99,-0.01,0.04,0.45,-13.29,13.21)}30.337%{transform:matrix(0.99,-0.01,0.04,0.45,-13.33,13.23)}31.461%{transform:matrix(0.99,-0.01,0.04,0.45,-13.38,13.26)}32.584%{transform:matrix(0.99,-0.01,0.04,0.45,-13.42,13.29)}33.708%{transform:matrix(0.99,-0.01,0.04,0.45,-13.47,13.33)}34.831%{transform:matrix(0.99,-0.01,0.04,0.45,-13.52,13.37)}35.955%{transform:matrix(0.99,-0.01,0.04,0.45,-13.58,13.42)}37.079%{transform:matrix(0.99,-0.01,0.04,0.45,-13.64,13.47)}38.202%{transform:matrix(0.99,-0.01,0.04,0.45,-13.7,13.52)}39.326%{transform:matrix(0.99,-0.01,0.04,0.45,-13.77,13.58)}40.449%{transform:matrix(0.99,-0.01,0.04,0.45,-13.86,13.63)}41.573%{transform:matrix(0.99,-0.01,0.04,0.45,-13.94,13.69)}42.697%{transform:matrix(0.99,-0.01,0.04,0.45,-14.04,13.75)}43.82%{transform:matrix(0.99,-0.01,0.04,0.45,-14.14,13.8)}44.944%{transform:matrix(0.99,-0.01,0.04,0.45,-14.25,13.86)}46.067%{transform:matrix(0.99,-0.01,0.04,0.45,-14.37,13.92)}47.191%{transform:matrix(0.99,-0.01,0.04,0.45,-14.5,13.97)}48.315%{transform:matrix(0.99,-0.01,0.04,0.45,-14.62,14.02)}49.438%{transform:matrix(0.99,0,0.04,0.22,-14.75,14.07)}50.562%{transform:matrix(0.99,0,0.04,0.24,-14.88,14.12)}51.685%{transform:matrix(0.99,-0.01,0.04,0.45,-15.01,14.17)}52.809%{transform:matrix(0.99,-0.01,0.04,0.45,-15.14,14.21)}53.933%{transform:matrix(0.99,-0.01,0.04,0.45,-15.26,14.25)}55.056%{transform:matrix(0.99,-0.01,0.04,0.45,-15.37,14.3)}56.18%{transform:matrix(0.99,-0.01,0.04,0.45,-15.47,14.34)}57.303%{transform:matrix(0.99,-0.01,0.04,0.45,-15.56,14.38)}58.427%{transform:matrix(0.99,-0.01,0.04,0.45,-15.64,14.43)}59.551%{transform:matrix(0.99,-0.01,0.04,0.45,-15.7,14.47)}60.674%{transform:matrix(0.99,-0.01,0.04,0.45,-15.74,14.52)}61.798%{transform:matrix(0.99,-0.01,0.04,0.45,-15.76,14.58)}62.921%{transform:matrix(0.99,-0.01,0.04,0.45,-15.76,14.64)}64.045%{transform:matrix(0.99,-0.01,0.04,0.45,-15.74,14.7)}65.169%{transform:matrix(0.99,-0.01,0.04,0.45,-15.7,14.77)}66.292%{transform:matrix(0.99,-0.01,0.04,0.45,-15.64,14.85)}67.416%{transform:matrix(0.99,-0.01,0.04,0.45,-15.56,14.94)}68.539%{transform:matrix(0.99,-0.01,0.04,0.45,-15.45,15.04)}69.663%{transform:matrix(0.99,-0.01,0.04,0.45,-15.33,15.15)}70.787%{transform:matrix(0.99,-0.01,0.04,0.45,-15.19,15.26)}71.91%{transform:matrix(0.99,-0.01,0.04,0.45,-15.05,15.41)}73.034%{transform:matrix(0.99,-0.01,0.04,0.45,-14.9,15.56)}74.157%{transform:matrix(0.99,-0.01,0.04,0.45,-14.73,15.73)}75.281%{transform:matrix(0.99,-0.01,0.04,0.45,-14.56,15.91)}76.404%{transform:matrix(0.99,-0.01,0.04,0.45,-14.39,16.1)}77.528%{transform:matrix(0.99,-0.01,0.04,0.45,-14.21,16.3)}78.652%{transform:matrix(0.99,-0.01,0.04,0.45,-14.03,16.51)}79.775%{transform:matrix(0.99,-0.01,0.04,0.45,-13.85,16.72)}80.899%{transform:matrix(0.99,-0.01,0.04,0.45,-13.68,16.94)}82.022%{transform:matrix(0.99,-0.01,0.04,0.45,-13.52,17.16)}83.146%{transform:matrix(0.99,-0.01,0.04,0.45,-13.37,17.39)}84.27%{transform:matrix(0.99,-0.01,0.04,0.45,-13.23,17.61)}85.393%{transform:matrix(0.99,-0.01,0.04,0.45,-13.11,17.83)}86.517%{transform:matrix(0.99,-0.01,0.04,0.45,-13,18.04)}87.64%{transform:matrix(0.99,-0.01,0.04,0.45,-12.92,18.24)}88.764%{transform:matrix(0.99,-0.01,0.04,0.45,-12.85,18.43)}89.888%{transform:matrix(0.99,-0.01,0.04,0.45,-12.8,18.61)}91.011%{transform:matrix(0.99,-0.01,0.04,0.45,-12.77,18.76)}92.135%{transform:matrix(0.99,-0.01,0.04,0.45,-12.76,18.9)}93.258%{transform:matrix(0.99,-0.01,0.04,0.45,-12.77,19.03)}94.382%{transform:matrix(0.99,-0.01,0.04,0.45,-12.8,19.12)}95.506%{transform:matrix(0.99,-0.01,0.04,0.45,-12.84,19.19)}96.629%{transform:matrix(0.99,-0.01,0.04,0.45,-12.9,19.25)}97.753%{transform:matrix(0.99,-0.01,0.04,0.45,-12.98,19.29)}98.876%{transform:matrix(0.99,-0.01,0.04,0.45,-13.07,19.3)}100%{transform:matrix(0.99,-0.01,0.04,0.45,-13.17,19.28)}}@keyframes oeil1{0%{transform:matrix(0.91,-0.04,0.03,0.45,41.57,10.17)}1.124%{transform:matrix(0.91,-0.04,0.03,0.45,41.54,10.21)}2.247%{transform:matrix(0.91,-0.04,0.03,0.45,41.5,10.25)}3.371%{transform:matrix(0.91,-0.04,0.03,0.45,41.45,10.28)}4.494%{transform:matrix(0.91,-0.04,0.03,0.45,41.4,10.32)}5.618%{transform:matrix(0.91,-0.04,0.03,0.45,41.34,10.34)}6.742%{transform:matrix(0.91,-0.04,0.03,0.45,41.27,10.36)}7.865%{transform:matrix(0.91,-0.04,0.03,0.45,41.2,10.38)}8.989%{transform:matrix(0.91,-0.04,0.03,0.45,41.12,10.39)}10.112%{transform:matrix(0.91,-0.04,0.03,0.45,41.03,10.39)}11.236%{transform:matrix(0.91,-0.04,0.04,0.45,40.95,10.39)}12.36%{transform:matrix(0.91,-0.04,0.04,0.45,40.85,10.39)}13.483%{transform:matrix(0.91,-0.04,0.04,0.45,40.76,10.38)}14.607%{transform:matrix(0.91,-0.04,0.04,0.45,40.67,10.37)}15.73%{transform:matrix(0.91,-0.04,0.04,0.45,40.57,10.36)}16.854%{transform:matrix(0.91,-0.04,0.04,0.45,40.48,10.35)}17.978%{transform:matrix(0.91,-0.04,0.04,0.45,40.39,10.33)}19.101%{transform:matrix(0.91,-0.04,0.04,0.45,40.3,10.32)}20.225%{transform:matrix(0.91,-0.04,0.04,0.45,40.22,10.3)}21.348%{transform:matrix(0.91,-0.04,0.04,0.45,40.14,10.29)}22.472%{transform:matrix(0.91,-0.04,0.04,0.45,40.06,10.27)}23.596%{transform:matrix(0.91,-0.04,0.04,0.45,39.99,10.26)}24.719%{transform:matrix(0.91,-0.04,0.04,0.45,39.93,10.26)}25.843%{transform:matrix(0.91,-0.04,0.04,0.45,39.86,10.25)}26.966%{transform:matrix(0.91,-0.04,0.04,0.45,39.81,10.26)}28.09%{transform:matrix(0.91,-0.04,0.04,0.45,39.75,10.26)}29.213%{transform:matrix(0.91,-0.04,0.04,0.45,39.7,10.27)}30.337%{transform:matrix(0.91,-0.04,0.04,0.45,39.65,10.29)}31.461%{transform:matrix(0.91,-0.04,0.04,0.45,39.59,10.31)}32.584%{transform:matrix(0.91,-0.04,0.04,0.45,39.54,10.33)}33.708%{transform:matrix(0.91,-0.04,0.04,0.45,39.48,10.36)}34.831%{transform:matrix(0.91,-0.04,0.04,0.45,39.42,10.4)}35.955%{transform:matrix(0.91,-0.04,0.04,0.45,39.36,10.43)}37.079%{transform:matrix(0.91,-0.04,0.04,0.45,39.29,10.48)}38.202%{transform:matrix(0.91,-0.04,0.04,0.45,39.21,10.52)}39.326%{transform:matrix(0.91,-0.04,0.04,0.45,39.12,10.57)}40.449%{transform:matrix(0.91,-0.04,0.04,0.45,39.02,10.62)}41.573%{transform:matrix(0.92,-0.04,0.04,0.45,38.92,10.67)}42.697%{transform:matrix(0.92,-0.04,0.04,0.45,38.8,10.72)}43.82%{transform:matrix(0.92,-0.04,0.04,0.45,38.68,10.77)}44.944%{transform:matrix(0.92,-0.04,0.04,0.45,38.55,10.82)}46.067%{transform:matrix(0.92,-0.04,0.04,0.45,38.41,10.87)}47.191%{transform:matrix(0.92,-0.04,0.04,0.45,38.26,10.92)}48.315%{transform:matrix(0.92,-0.04,0.04,0.45,38.11,10.97)}49.438%{transform:matrix(0.92,-0.02,0.04,0.22,37.95,11.02)}50.562%{transform:matrix(0.92,-0.02,0.04,0.24,37.8,11.06)}51.685%{transform:matrix(0.92,-0.04,0.04,0.45,37.65,11.1)}52.809%{transform:matrix(0.92,-0.04,0.04,0.45,37.5,11.14)}53.933%{transform:matrix(0.92,-0.04,0.04,0.45,37.36,11.18)}55.056%{transform:matrix(0.92,-0.04,0.04,0.45,37.22,11.22)}56.18%{transform:matrix(0.92,-0.04,0.04,0.45,37.1,11.26)}57.303%{transform:matrix(0.92,-0.04,0.04,0.45,36.99,11.3)}58.427%{transform:matrix(0.92,-0.04,0.04,0.45,36.9,11.33)}59.551%{transform:matrix(0.92,-0.04,0.04,0.45,36.83,11.37)}60.674%{transform:matrix(0.92,-0.04,0.04,0.45,36.78,11.41)}61.798%{transform:matrix(0.92,-0.04,0.04,0.45,36.76,11.45)}62.921%{transform:matrix(0.92,-0.04,0.04,0.45,36.75,11.5)}64.045%{transform:matrix(0.92,-0.04,0.04,0.45,36.77,11.55)}65.169%{transform:matrix(0.92,-0.04,0.04,0.45,36.82,11.6)}66.292%{transform:matrix(0.92,-0.04,0.04,0.45,36.88,11.66)}67.416%{transform:matrix(0.92,-0.04,0.04,0.45,36.97,11.72)}68.539%{transform:matrix(0.92,-0.04,0.04,0.45,37.08,11.79)}69.663%{transform:matrix(0.92,-0.04,0.04,0.45,37.22,11.87)}70.787%{transform:matrix(0.92,-0.04,0.04,0.45,37.37,11.95)}71.91%{transform:matrix(0.92,-0.04,0.04,0.45,37.53,12.04)}73.034%{transform:matrix(0.92,-0.04,0.04,0.45,37.71,12.13)}74.157%{transform:matrix(0.92,-0.04,0.04,0.45,37.9,12.23)}75.281%{transform:matrix(0.92,-0.05,0.04,0.45,38.1,12.34)}76.404%{transform:matrix(0.92,-0.05,0.04,0.45,38.3,12.46)}77.528%{transform:matrix(0.91,-0.05,0.04,0.45,38.51,12.58)}78.652%{transform:matrix(0.91,-0.05,0.04,0.45,38.71,12.7)}79.775%{transform:matrix(0.91,-0.05,0.04,0.45,38.91,12.83)}80.899%{transform:matrix(0.91,-0.05,0.04,0.45,39.1,12.97)}82.022%{transform:matrix(0.91,-0.05,0.04,0.45,39.27,13.1)}83.146%{transform:matrix(0.91,-0.05,0.04,0.45,39.44,13.24)}84.27%{transform:matrix(0.91,-0.05,0.04,0.45,39.59,13.37)}85.393%{transform:matrix(0.91,-0.05,0.04,0.45,39.72,13.5)}86.517%{transform:matrix(0.91,-0.05,0.04,0.45,39.83,13.63)}87.64%{transform:matrix(0.91,-0.05,0.04,0.45,39.92,13.76)}88.764%{transform:matrix(0.91,-0.05,0.04,0.45,39.99,13.87)}89.888%{transform:matrix(0.91,-0.05,0.04,0.45,40.04,13.98)}91.011%{transform:matrix(0.91,-0.05,0.04,0.45,40.07,14.08)}92.135%{transform:matrix(0.91,-0.05,0.04,0.45,40.08,14.17)}93.258%{transform:matrix(0.91,-0.05,0.04,0.45,40.06,14.25)}94.382%{transform:matrix(0.91,-0.05,0.04,0.45,40.03,14.31)}95.506%{transform:matrix(0.91,-0.05,0.04,0.45,39.98,14.36)}96.629%{transform:matrix(0.91,-0.05,0.04,0.45,39.92,14.39)}97.753%{transform:matrix(0.91,-0.05,0.04,0.45,39.84,14.41)}98.876%{transform:matrix(0.91,-0.05,0.04,0.45,39.75,14.41)}100%{transform:matrix(0.91,-0.05,0.04,0.45,39.65,14.39)}}</style></svg>