<svg xmlns="http://www.w3.org/2000/svg" style="display:none">

  <!-- External popout icon -->
  <symbol id="icon-external" viewBox="0 0 24 24" fill="none" stroke="currentColor" stroke-width="2" stroke-linecap="round" stroke-linejoin="round">
    <path d="M18 13v6a2 2 0 0 1-2 2H5a2 2 0 0 1-2-2V8a2 2 0 0 1 2-2h6"/>
    <polyline points="15 3 21 3 21 9"/>
    <line x1="10" y1="14" x2="21" y2="3"/>
  </symbol>

  <!-- Plus icon -->
  <symbol id="icon-plus" viewBox="0 0 24 24" fill="none" stroke="currentColor" stroke-width="2" stroke-linecap="round" stroke-linejoin="round">
    <line x1="12" y1="5" x2="12" y2="19"/>
    <line x1="5" y1="12" x2="19" y2="12"/>
  </symbol>

  <!-- Edit (pencil) icon -->
  <symbol id="icon-edit" viewBox="0 0 24 24" fill="none" stroke="currentColor" stroke-width="2" stroke-linecap="round" stroke-linejoin="round">
    <path d="M17 3a2.85 2.85 0 1 1 4 4L7.5 20.5 2 22l1.5-5.5Z"/>
    <path d="m15 5 4 4"/>
  </symbol>

  <!-- Delete (trash) icon -->
  <symbol id="icon-trash" viewBox="0 0 24 24" fill="none" stroke="currentColor" stroke-width="2" stroke-linecap="round" stroke-linejoin="round">
    <path d="M3 6h18"/>
    <path d="M19 6v14c0 1-1 2-2 2H7c-1 0-2-1-2-2V6"/>
    <path d="M8 6V4c0-1 1-2 2-2h4c1 0 2 1 2 2v2"/>
    <line x1="10" y1="11" x2="10" y2="17"/>
    <line x1="14" y1="11" x2="14" y2="17"/>
  </symbol>

  <!-- Collection icons for the picker -->

  <!-- Folder -->
  <symbol id="icon-folder" viewBox="0 0 24 24" fill="none" stroke="currentColor" stroke-width="1.8" stroke-linecap="round" stroke-linejoin="round">
    <path d="M22 19a2 2 0 0 1-2 2H4a2 2 0 0 1-2-2V5a2 2 0 0 1 2-2h5l2 3h9a2 2 0 0 1 2 2z"/>
  </symbol>

  <!-- Star -->
  <symbol id="icon-star" viewBox="0 0 24 24" fill="none" stroke="currentColor" stroke-width="1.8" stroke-linecap="round" stroke-linejoin="round">
    <polygon points="12 2 15.09 8.26 22 9.27 17 14.14 18.18 21.02 12 17.77 5.82 21.02 7 14.14 2 9.27 8.91 8.26 12 2"/>
  </symbol>

  <!-- Heart -->
  <symbol id="icon-heart" viewBox="0 0 24 24" fill="none" stroke="currentColor" stroke-width="1.8" stroke-linecap="round" stroke-linejoin="round">
    <path d="M19 14c1.49-1.46 3-3.21 3-5.5A5.5 5.5 0 0 0 16.5 3c-1.76 0-3 .5-4.5 2-1.5-1.5-2.74-2-4.5-2A5.5 5.5 0 0 0 2 8.5c0 2.3 1.5 4.05 3 5.5l7 7Z"/>
  </symbol>

  <!-- Bookmark -->
  <symbol id="icon-bookmark" viewBox="0 0 24 24" fill="none" stroke="currentColor" stroke-width="1.8" stroke-linecap="round" stroke-linejoin="round">
    <path d="m19 21-7-4-7 4V5a2 2 0 0 1 2-2h10a2 2 0 0 1 2 2v16z"/>
  </symbol>

  <!-- Code -->
  <symbol id="icon-code" viewBox="0 0 24 24" fill="none" stroke="currentColor" stroke-width="1.8" stroke-linecap="round" stroke-linejoin="round">
    <polyline points="16 18 22 12 16 6"/>
    <polyline points="8 6 2 12 8 18"/>
  </symbol>

  <!-- Palette -->
  <symbol id="icon-palette" viewBox="0 0 24 24" fill="none" stroke="currentColor" stroke-width="1.8" stroke-linecap="round" stroke-linejoin="round">
    <circle cx="13.5" cy="6.5" r="0.5" fill="currentColor"/>
    <circle cx="17.5" cy="10.5" r="0.5" fill="currentColor"/>
    <circle cx="8.5" cy="7.5" r="0.5" fill="currentColor"/>
    <circle cx="6.5" cy="12.5" r="0.5" fill="currentColor"/>
    <path d="M12 2C6.5 2 2 6.5 2 12s4.5 10 10 10c.926 0 1.648-.746 1.648-1.688 0-.437-.18-.835-.437-1.125-.29-.289-.438-.652-.438-1.125a1.64 1.64 0 0 1 1.668-1.668h1.996c3.051 0 5.555-2.503 5.555-5.554C21.965 6.012 17.461 2 12 2z"/>
  </symbol>

  <!-- Globe -->
  <symbol id="icon-globe" viewBox="0 0 24 24" fill="none" stroke="currentColor" stroke-width="1.8" stroke-linecap="round" stroke-linejoin="round">
    <circle cx="12" cy="12" r="10"/>
    <path d="M12 2a14.5 14.5 0 0 0 0 20 14.5 14.5 0 0 0 0-20"/>
    <path d="M2 12h20"/>
  </symbol>

  <!-- Music -->
  <symbol id="icon-music" viewBox="0 0 24 24" fill="none" stroke="currentColor" stroke-width="1.8" stroke-linecap="round" stroke-linejoin="round">
    <path d="M9 18V5l12-2v13"/>
    <circle cx="6" cy="18" r="3"/>
    <circle cx="18" cy="16" r="3"/>
  </symbol>

  <!-- Camera -->
  <symbol id="icon-camera" viewBox="0 0 24 24" fill="none" stroke="currentColor" stroke-width="1.8" stroke-linecap="round" stroke-linejoin="round">
    <path d="M14.5 4h-5L7 7H4a2 2 0 0 0-2 2v9a2 2 0 0 0 2 2h16a2 2 0 0 0 2-2V9a2 2 0 0 0-2-2h-3l-2.5-3z"/>
    <circle cx="12" cy="13" r="3"/>
  </symbol>

  <!-- Book -->
  <symbol id="icon-book" viewBox="0 0 24 24" fill="none" stroke="currentColor" stroke-width="1.8" stroke-linecap="round" stroke-linejoin="round">
    <path d="M4 19.5v-15A2.5 2.5 0 0 1 6.5 2H20v20H6.5a2.5 2.5 0 0 1 0-5H20"/>
  </symbol>

  <!-- Lightning bolt -->
  <symbol id="icon-bolt" viewBox="0 0 24 24" fill="none" stroke="currentColor" stroke-width="1.8" stroke-linecap="round" stroke-linejoin="round">
    <path d="M13 2 3 14h9l-1 8 10-12h-9l1-8z"/>
  </symbol>

  <!-- Shopping bag -->
  <symbol id="icon-bag" viewBox="0 0 24 24" fill="none" stroke="currentColor" stroke-width="1.8" stroke-linecap="round" stroke-linejoin="round">
    <path d="M6 2 3 6v14a2 2 0 0 0 2 2h14a2 2 0 0 0 2-2V6l-3-4Z"/>
    <path d="M3 6h18"/>
    <path d="M16 10a4 4 0 0 1-8 0"/>
  </symbol>

  <!-- Gamepad -->
  <symbol id="icon-gamepad" viewBox="0 0 24 24" fill="none" stroke="currentColor" stroke-width="1.8" stroke-linecap="round" stroke-linejoin="round">
    <line x1="6" y1="11" x2="10" y2="11"/>
    <line x1="8" y1="9" x2="8" y2="13"/>
    <line x1="15" y1="12" x2="15.01" y2="12"/>
    <line x1="18" y1="10" x2="18.01" y2="10"/>
    <path d="M17.32 5H6.68a4 4 0 0 0-3.978 3.59c-.006.052-.01.101-.017.152C2.604 9.416 2 14.456 2 16a3 3 0 0 0 3 3c1 0 1.5-.5 2-1l1.414-1.414A2 2 0 0 1 9.828 16h4.344a2 2 0 0 1 1.414.586L17 18c.5.5 1 1 2 1a3 3 0 0 0 3-3c0-1.545-.604-6.584-.685-7.258-.007-.05-.011-.1-.017-.151A4 4 0 0 0 17.32 5z"/>
  </symbol>

  <!-- Coffee -->
  <symbol id="icon-coffee" viewBox="0 0 24 24" fill="none" stroke="currentColor" stroke-width="1.8" stroke-linecap="round" stroke-linejoin="round">
    <path d="M17 8h1a4 4 0 1 1 0 8h-1"/>
    <path d="M3 8h14v9a4 4 0 0 1-4 4H7a4 4 0 0 1-4-4Z"/>
    <line x1="6" y1="2" x2="6" y2="4"/>
    <line x1="10" y1="2" x2="10" y2="4"/>
    <line x1="14" y1="2" x2="14" y2="4"/>
  </symbol>

  <!-- Link -->
  <symbol id="icon-link" viewBox="0 0 24 24" fill="none" stroke="currentColor" stroke-width="1.8" stroke-linecap="round" stroke-linejoin="round">
    <path d="M10 13a5 5 0 0 0 7.54.54l3-3a5 5 0 0 0-7.07-7.07l-1.72 1.71"/>
    <path d="M14 11a5 5 0 0 0-7.54-.54l-3 3a5 5 0 0 0 7.07 7.07l1.71-1.71"/>
  </symbol>

  <!-- Package (default) -->
  <symbol id="icon-package" viewBox="0 0 24 24" fill="none" stroke="currentColor" stroke-width="1.8" stroke-linecap="round" stroke-linejoin="round">
    <path d="m16.5 9.4-9-5.19"/>
    <path d="M21 16V8a2 2 0 0 0-1-1.73l-7-4a2 2 0 0 0-2 0l-7 4A2 2 0 0 0 3 8v8a2 2 0 0 0 1 1.73l7 4a2 2 0 0 0 2 0l7-4A2 2 0 0 0 21 16z"/>
    <polyline points="3.27 6.96 12 12.01 20.73 6.96"/>
    <line x1="12" y1="22.08" x2="12" y2="12"/>
  </symbol>

  <!-- School (Graduation Cap) -->
  <symbol id="icon-school" viewBox="0 0 24 24" fill="none" stroke="currentColor" stroke-width="1.8" stroke-linecap="round" stroke-linejoin="round">
    <path d="M22 10v6M2 10l10-5 10 5-10 5z"/>
    <path d="M6 12v5c3 3 9 3 12 0v-5"/>
  </symbol>

  <!-- Work (Briefcase) -->
  <symbol id="icon-work" viewBox="0 0 24 24" fill="none" stroke="currentColor" stroke-width="1.8" stroke-linecap="round" stroke-linejoin="round">
    <rect x="2" y="7" width="20" height="14" rx="2" ry="2"/>
    <path d="M16 21V5a2 2 0 0 0-2-2h-4a2 2 0 0 0-2 2v16"/>
  </symbol>

  <!-- Design (Pen Tool) -->
  <symbol id="icon-design" viewBox="0 0 24 24" fill="none" stroke="currentColor" stroke-width="1.8" stroke-linecap="round" stroke-linejoin="round">
    <path d="m12 19 7-7 3 3-7 7-3-3z"/>
    <path d="m18 13-1.5-7.5L2 2l3.5 14.5L13 18z"/>
    <circle cx="11" cy="11" r="2"/>
  </symbol>

  <!-- Terminal -->
  <symbol id="icon-terminal" viewBox="0 0 24 24" fill="none" stroke="currentColor" stroke-width="1.8" stroke-linecap="round" stroke-linejoin="round">
    <polyline points="4 17 10 11 4 5"/>
    <line x1="12" y1="19" x2="20" y2="19"/>
  </symbol>

  <!-- Video -->
  <symbol id="icon-video" viewBox="0 0 24 24" fill="none" stroke="currentColor" stroke-width="1.8" stroke-linecap="round" stroke-linejoin="round">
    <polygon points="23 7 16 12 23 17 23 7"/>
    <rect x="1" y="5" width="15" height="14" rx="2" ry="2"/>
  </symbol>

  <!-- Money -->
  <symbol id="icon-money" viewBox="0 0 24 24" fill="none" stroke="currentColor" stroke-width="1.8" stroke-linecap="round" stroke-linejoin="round">
    <rect x="2" y="6" width="20" height="12" rx="2"/>
    <circle cx="12" cy="12" r="2"/>
    <path d="M6 12h.01M18 12h.01"/>
  </symbol>

  <!-- Travel (Compass) -->
  <symbol id="icon-travel" viewBox="0 0 24 24" fill="none" stroke="currentColor" stroke-width="1.8" stroke-linecap="round" stroke-linejoin="round">
    <circle cx="12" cy="12" r="10"/>
    <polygon points="16.24 7.76 14.12 14.12 7.76 16.24 9.88 9.88 16.24 7.76"/>
  </symbol>

  <!-- Health / Activity -->
  <symbol id="icon-health" viewBox="0 0 24 24" fill="none" stroke="currentColor" stroke-width="1.8" stroke-linecap="round" stroke-linejoin="round">
    <polyline points="22 12 18 12 15 21 9 3 6 12 2 12"/>
  </symbol>

  <!-- Database -->
  <symbol id="icon-database" viewBox="0 0 24 24" fill="none" stroke="currentColor" stroke-width="1.8" stroke-linecap="round" stroke-linejoin="round">
    <ellipse cx="12" cy="5" rx="9" ry="3"/>
    <path d="M21 12c0 1.66-4 3-9 3s-9-1.34-9-3"/>
    <path d="M3 5v14c0 1.66 4 3 9 3s9-1.34 9-3V5"/>
  </symbol>

  <!-- Chip / CPU -->
  <symbol id="icon-chip" viewBox="0 0 24 24" fill="none" stroke="currentColor" stroke-width="1.8" stroke-linecap="round" stroke-linejoin="round">
    <rect x="4" y="4" width="16" height="16" rx="2"/>
    <rect x="9" y="9" width="6" height="6"/>
    <line x1="9" y1="1" x2="9" y2="4"/>
    <line x1="15" y1="1" x2="15" y2="4"/>
    <line x1="9" y1="20" x2="9" y2="23"/>
    <line x1="15" y1="20" x2="15" y2="23"/>
    <line x1="20" y1="9" x2="23" y2="9"/>
    <line x1="20" y1="15" x2="23" y2="15"/>
    <line x1="1" y1="9" x2="4" y2="9"/>
    <line x1="1" y1="15" x2="4" y2="15"/>
  </symbol>

  <!-- Cloud -->
  <symbol id="icon-cloud" viewBox="0 0 24 24" fill="none" stroke="currentColor" stroke-width="1.8" stroke-linecap="round" stroke-linejoin="round">
    <path d="M17.5 19H9a7 7 0 1 1 6.71-9h1.79a4.5 4.5 0 1 1 0 9Z"/>
  </symbol>

  <!-- Shield -->
  <symbol id="icon-shield" viewBox="0 0 24 24" fill="none" stroke="currentColor" stroke-width="1.8" stroke-linecap="round" stroke-linejoin="round">
    <path d="M12 22s8-4 8-10V5l-8-3-8 3v7c0 6 8 10 8 10z"/>
  </symbol>

  <!-- Fire / Flame -->
  <symbol id="icon-fire" viewBox="0 0 24 24" fill="none" stroke="currentColor" stroke-width="1.8" stroke-linecap="round" stroke-linejoin="round">
    <path d="M8.5 14.5A2.5 2.5 0 0 0 11 12c0-1.38-.5-2-1-3-1.072-2.143-.224-4.054 2-6 .5 2.5 2 4.9 4 6.5 2 1.6 3 3.5 3 5.5a7 7 0 1 1-14 0c0-1.153.433-2.294 1-3a2.5 2.5 0 0 0 2.5 3.5z"/>
  </symbol>

  <!-- Mail -->
  <symbol id="icon-mail" viewBox="0 0 24 24" fill="none" stroke="currentColor" stroke-width="1.8" stroke-linecap="round" stroke-linejoin="round">
    <rect x="2" y="4" width="20" height="16" rx="2"/>
    <path d="m22 7-8.97 5.7a1.94 1.94 0 0 1-2.06 0L2 7"/>
  </symbol>

  <!-- Target -->
  <symbol id="icon-target" viewBox="0 0 24 24" fill="none" stroke="currentColor" stroke-width="1.8" stroke-linecap="round" stroke-linejoin="round">
    <circle cx="12" cy="12" r="10"/>
    <circle cx="12" cy="12" r="6"/>
    <circle cx="12" cy="12" r="2"/>
  </symbol>

  <!-- Calendar -->
  <symbol id="icon-calendar" viewBox="0 0 24 24" fill="none" stroke="currentColor" stroke-width="1.8" stroke-linecap="round" stroke-linejoin="round">
    <rect x="3" y="4" width="18" height="18" rx="2" ry="2"/>
    <line x1="16" y1="2" x2="16" y2="6"/>
    <line x1="8" y1="2" x2="8" y2="6"/>
    <line x1="3" y1="10" x2="21" y2="10"/>
  </symbol>

  <!-- Search -->
  <symbol id="icon-search" viewBox="0 0 24 24" fill="none" stroke="currentColor" stroke-width="1.8" stroke-linecap="round" stroke-linejoin="round">
    <circle cx="11" cy="11" r="8"/>
    <line x1="21" y1="21" x2="16.65" y2="16.65"/>
  </symbol>

  <!-- Settings -->
  <symbol id="icon-settings" viewBox="0 0 24 24" fill="none" stroke="currentColor" stroke-width="1.8" stroke-linecap="round" stroke-linejoin="round">
    <circle cx="12" cy="12" r="3"/>
    <path d="M19.4 15a1.65 1.65 0 0 0 .33 1.82l.06.06a2 2 0 0 1 0 2.83 2 2 0 0 1-2.83 0l-.06-.06a1.65 1.65 0 0 0-1.82-.33 1.65 1.65 0 0 0-1 1.51V21a2 2 0 0 1-2 2 2 2 0 0 1-2-2v-.09A1.65 1.65 0 0 0 9 19.4a1.65 1.65 0 0 0-1.82.33l-.06.06a2 2 0 0 1-2.83 0 2 2 0 0 1 0-2.83l.06-.06a1.65 1.65 0 0 0 .33-1.82 1.65 1.65 0 0 0-1.51-1H3a2 2 0 0 1-2-2 2 2 0 0 1 2-2h.09A1.65 1.65 0 0 0 4.6 9a1.65 1.65 0 0 0-.33-1.82l-.06-.06a2 2 0 0 1 0-2.83 2 2 0 0 1 2.83 0l.06.06a1.65 1.65 0 0 0 1.82.33H9a1.65 1.65 0 0 0 1-1.51V3a2 2 0 0 1 2-2 2 2 0 0 1 2 2v.09a1.65 1.65 0 0 0 1 1.51 1.65 1.65 0 0 0 1.82-.33l.06-.06a2 2 0 0 1 2.83 0 2 2 0 0 1 0 2.83l-.06.06a1.65 1.65 0 0 0-.33 1.82V9a1.65 1.65 0 0 0 1.51 1H21a2 2 0 0 1 2 2 2 2 0 0 1-2 2h-.09a1.65 1.65 0 0 0-1.51 1z"/>
  </symbol>

  <!-- Layers -->
  <symbol id="icon-layers" viewBox="0 0 24 24" fill="none" stroke="currentColor" stroke-width="1.8" stroke-linecap="round" stroke-linejoin="round">
    <polygon points="12 2 2 7 12 12 22 7 12 2"/>
    <polyline points="2 17 12 22 22 17"/>
    <polyline points="2 12 12 17 22 12"/>
  </symbol>

  <!-- Layout -->
  <symbol id="icon-layout" viewBox="0 0 24 24" fill="none" stroke="currentColor" stroke-width="1.8" stroke-linecap="round" stroke-linejoin="round">
    <rect x="3" y="3" width="18" height="18" rx="2" ry="2"/>
    <line x1="3" y1="9" x2="21" y2="9"/>
    <line x1="9" y1="21" x2="9" y2="9"/>
  </symbol>

  <!-- Image -->
  <symbol id="icon-image" viewBox="0 0 24 24" fill="none" stroke="currentColor" stroke-width="1.8" stroke-linecap="round" stroke-linejoin="round">
    <rect x="3" y="3" width="18" height="18" rx="2" ry="2"/>
    <circle cx="8.5" cy="8.5" r="1.5"/>
    <polyline points="21 15 16 10 5 21"/>
  </symbol>

  <!-- Key -->
  <symbol id="icon-key" viewBox="0 0 24 24" fill="none" stroke="currentColor" stroke-width="1.8" stroke-linecap="round" stroke-linejoin="round">
    <path d="m21 2-2 2m-7.61 7.61a5.5 5.5 0 1 1-7.778 7.778 5.5 5.5 0 0 1 7.778-7.778zm0 0L15.5 7.5m0 0l3 3L22 7l-3-3m-3.5 3.5L19 4"/>
  </symbol>

  <!-- Lock -->
  <symbol id="icon-lock" viewBox="0 0 24 24" fill="none" stroke="currentColor" stroke-width="1.8" stroke-linecap="round" stroke-linejoin="round">
    <rect x="3" y="11" width="18" height="11" rx="2" ry="2"/>
    <path d="M7 11V7a5 5 0 0 1 10 0v4"/>
  </symbol>

  <!-- Tag -->
  <symbol id="icon-tag" viewBox="0 0 24 24" fill="none" stroke="currentColor" stroke-width="1.8" stroke-linecap="round" stroke-linejoin="round">
    <path d="M20.59 13.41l-7.17 7.17a2 2 0 0 1-2.83 0L2 12V2h10l8.59 8.59a2 2 0 0 1 0 2.82z"/>
    <line x1="7" y1="7" x2="7.01" y2="7"/>
  </symbol>

  <!-- Writing -->
  <symbol id="icon-writing" viewBox="0 0 24 24" fill="none" stroke="currentColor" stroke-width="1.8" stroke-linecap="round" stroke-linejoin="round">
    <path d="M12 19l7-7 3 3-7 7-3-3z"/>
    <path d="M18 13l-1.5-7.5L2 2l3.5 14.5L13 18z"/>
  </symbol>

  <!-- Headphones -->
  <symbol id="icon-headphones" viewBox="0 0 24 24" fill="none" stroke="currentColor" stroke-width="1.8" stroke-linecap="round" stroke-linejoin="round">
    <path d="M3 18v-6a9 9 0 0 1 18 0v6"/>
    <path d="M21 19a2 2 0 0 1-2 2h-1a2 2 0 0 1-2-2v-3a2 2 0 0 1 2-2h3zM3 19a2 2 0 0 0 2 2h1a2 2 0 0 0 2-2v-3a2 2 0 0 0-2-2H3z"/>
  </symbol>

  <!-- Film -->
  <symbol id="icon-film" viewBox="0 0 24 24" fill="none" stroke="currentColor" stroke-width="1.8" stroke-linecap="round" stroke-linejoin="round">
    <rect x="2" y="2" width="20" height="20" rx="2.18" ry="2.18"/>
    <line x1="7" y1="2" x2="7" y2="22"/>
    <line x1="17" y1="2" x2="17" y2="22"/>
    <line x1="2" y1="12" x2="22" y2="12"/>
    <line x1="2" y1="7" x2="7" y2="7"/>
    <line x1="2" y1="17" x2="7" y2="17"/>
    <line x1="17" y1="17" x2="22" y2="17"/>
    <line x1="17" y1="7" x2="22" y2="7"/>
  </symbol>

  <!-- Pin -->
  <symbol id="icon-pin" viewBox="0 0 24 24" fill="none" stroke="currentColor" stroke-width="1.8" stroke-linecap="round" stroke-linejoin="round">
    <path d="M21 10c0 7-9 13-9 13s-9-6-9-13a9 9 0 0 1 18 0z"/>
    <circle cx="12" cy="10" r="3"/>
  </symbol>

  <!-- Flag -->
  <symbol id="icon-flag" viewBox="0 0 24 24" fill="none" stroke="currentColor" stroke-width="1.8" stroke-linecap="round" stroke-linejoin="round">
    <path d="M4 15s1-1 4-1 5 2 8 2 4-1 4-1V3s-1 1-4 1-5-2-8-2-4 1-4 1z"/>
    <line x1="4" y1="22" x2="4" y2="15"/>
  </symbol>

  <!-- Trophy -->
  <symbol id="icon-trophy" viewBox="0 0 24 24" fill="none" stroke="currentColor" stroke-width="1.8" stroke-linecap="round" stroke-linejoin="round">
    <path d="M6 9H4.5a2.5 2.5 0 0 1 0-5H6"/>
    <path d="M18 9h1.5a2.5 2.5 0 0 0 0-5H18"/>
    <path d="M4 22h16"/>
    <path d="M10 14.66V17c0 .55-.47.98-.97 1.21C7.85 18.75 7 20.24 7 22"/>
    <path d="M14 14.66V17c0 .55.47.98.97 1.21C16.15 18.75 17 20.24 17 22"/>
    <path d="M18 2H6v7a6 6 0 0 0 12 0V2z"/>
  </symbol>

  <!-- Gift -->
  <symbol id="icon-gift" viewBox="0 0 24 24" fill="none" stroke="currentColor" stroke-width="1.8" stroke-linecap="round" stroke-linejoin="round">
    <polyline points="20 12 20 22 4 22 4 12"/>
    <rect x="2" y="7" width="20" height="5"/>
    <line x1="12" y1="22" x2="12" y2="7"/>
    <path d="M12 7H7.5a2.5 2.5 0 0 1 0-5C11 2 12 7 12 7z"/>
    <path d="M12 7h4.5a2.5 2.5 0 0 0 0-5C13 2 12 7 12 7z"/>
  </symbol>

  <!-- Sun -->
  <symbol id="icon-sun" viewBox="0 0 24 24" fill="none" stroke="currentColor" stroke-width="1.8" stroke-linecap="round" stroke-linejoin="round">
    <circle cx="12" cy="12" r="5"/>
    <line x1="12" y1="1" x2="12" y2="3"/>
    <line x1="12" y1="21" x2="12" y2="23"/>
    <line x1="4.22" y1="4.22" x2="5.64" y2="5.64"/>
    <line x1="18.36" y1="18.36" x2="19.78" y2="19.78"/>
    <line x1="1" y1="12" x2="3" y2="12"/>
    <line x1="21" y1="12" x2="23" y2="12"/>
    <line x1="4.22" y1="19.78" x2="5.64" y2="18.36"/>
    <line x1="18.36" y1="5.64" x2="19.78" y2="4.22"/>
  </symbol>

</svg>
